<svg xmlns="http://www.w3.org/2000/svg" viewBox="0 0 102.6 25"><defs><style>.cls-1{fill:#fff;}</style></defs><g id="Layer_2" data-name="Layer 2"><g id="Layer_1-2" data-name="Layer 1"><path class="cls-1" d="M36.61.79a.87.87,0,0,1,.12.81L29.26,24.12a.9.9,0,0,1-.86.62H23.74a.91.91,0,0,1-.85-.6L18.37,11.22,13.89,24.14a.91.91,0,0,1-.86.6H8.38a.9.9,0,0,1-.86-.62L.05,1.6A.87.87,0,0,1,.17.79.89.89,0,0,1,.9.41H6.25a.9.9,0,0,1,.86.64L11,14,15.31,1a.9.9,0,0,1,.86-.62h4.58A.89.89,0,0,1,21.6,1l4.32,13L29.81,1.05a.89.89,0,0,1,.86-.64h5.21A.89.89,0,0,1,36.61.79Zm9-.38h-5.1a.91.91,0,0,0-.91.9V23.67a.9.9,0,0,0,.91.9h5.1a.9.9,0,0,0,.9-.9V1.31A.9.9,0,0,0,45.61.41Zm15.32,9c-3.2-.72-4-1.18-4-2.2V7.16c0-.68.59-1.41,2.26-1.41a14.24,14.24,0,0,1,7,2,.88.88,0,0,0,.44.12.94.94,0,0,0,.46-.13.9.9,0,0,0,.45-.78V2.53a.92.92,0,0,0-.49-.8A16.12,16.12,0,0,0,59.38,0C53.74,0,50,3.13,50,7.78v.07c0,5.13,4.13,6.49,9.12,7.63,3.35.78,3.93,1.32,3.93,2.17v.07c0,.57-.33,1.53-2.56,1.53a15.18,15.18,0,0,1-8.32-2.67.86.86,0,0,0-.49-.15,1,1,0,0,0-.43.11.92.92,0,0,0-.47.8v4.52a.92.92,0,0,0,.44.78,17.7,17.7,0,0,0,9,2.36C66.12,25,70,21.89,70,17.07V17C70,12.35,66.34,10.61,60.93,9.43ZM94.06.87a.92.92,0,0,0-.79-.46H87.7a.91.91,0,0,0-.78.46L82.29,9,77.7.87a.91.91,0,0,0-.78-.46H71.21a.91.91,0,0,0-.79.46.9.9,0,0,0,0,.91l8.35,13.75v8.14a.9.9,0,0,0,.9.9h5.1a.9.9,0,0,0,.91-.9V15.43L94,1.79A.92.92,0,0,0,94.06.87Zm3.61,10.56a3.57,3.57,0,1,0-1.93-4.67A3.6,3.6,0,0,0,97.67,11.43Zm1.37,4a3.57,3.57,0,0,0,0,7.14,3.56,3.56,0,0,0,1.36-.28,3.55,3.55,0,0,0,1.93-4.65A3.56,3.56,0,0,0,99,15.43Z"/></g></g></svg>